 http://img691.imageshack.us/img691/7308/lincz2010.jpg

Country.......: Poland
Genre.........: Drama, Thriller
Date release..: 17.09.2010 [World]
Director......: Krzysztof Lukaszewicz
Writers.......: Krzysztof Lukaszewicz
Duration......: 78 min.
More..........: http://www.imdb.com/title/tt1971461
Trailer.......:

Pilot :
Inspired by events in Włodowie loud thriller about crime, which shocked the Polish media and the judiciary. In a small Masurian village comes to a bloody murder, the perpetrator can be almost any of the locals. It turns out that the victim - 60-year-old recidivist - many years cruelly tormented neighbors. Begins an investigation, which revealed hidden secrets come out busily locals.

Cats :
Leszek Lichota ... Adam Grad
Agnieszka Podsiadlik ... Renata Grad, zona Adama
Wieslaw Komasa ... Zaranek
Maciej Mikolajczyk ... Marcin Grad, brat Adama
Lukasz Simlat ... Dariusz Grad, brat Adama
Izabela Kuna ... Jagoda Slota, sasiadka Gradow
Zbigniew Stryj ... Policjant Jurecki
Krzysztof Franieczek ... Prokurator
Tamara Arciuch ... Mecenas Lubienska
Ireneusz Koziol ... Charewicz, ojciec Renaty Grad 

Data Technical :
!!! SAMPLE !!!
Audio.....: Polish
Subtitles.: None
Format                           : AVI
Format/Info                      : Audio Video Interleave
File size                        : 703 MiB
Duration                         : 1h 17mn
Overall bit rate                 : 1 261 Kbps
Writing application              : VirtualDubMod 1.5.10.2 (build 2542/release)
Writing library                  : VirtualDubMod build 2542/release
Video
ID                               : 0
Format                           : MPEG-4 Visual
Format profile                   : Advanced Simple@L5
Format settings, BVOP            : Yes
Format settings, QPel            : No
Format settings, GMC             : No warppoints
Format settings, Matrix          : Default (H.263)
Muxing mode                      : Packed bitstream
Codec ID                         : XVID
Codec ID/Hint                    : XviD
Duration                         : 1h 17mn
Bit rate                         : 1 123 Kbps
Width                            : 720 pixels
Height                           : 392 pixels
Display aspect ratio             : 16:9
Frame rate                       : 25.000 fps
Color space                      : YUV
Chroma subsampling               : 4:2:0
Bit depth                        : 8 bits
Scan type                        : Progressive
Bits/(Pixel*Frame)               : 0.159
Stream size                      : 626 MiB (89%)
Writing library                  : XviD 62
Audio
ID                               : 1
Format                           : MPEG Audio
Format version                   : Version 1
Format profile                   : Layer 3
Codec ID                         : 55
Codec ID/Hint                    : MP3
Duration                         : 1h 17mn
Bit rate mode                    : Constant
Bit rate                         : 128 Kbps
Channel(s)                       : 2 channels
Sampling rate                    : 44.1 KHz
Stream size                      : 71.3 MiB (10%)
Alignment                        : Split accross interleaves
Interleave, duration             : 40 ms (1.00 video frame)
Interleave, preload duration     : 500 ms

Screen : 
http://img684.imageshack.us/img684/9153/lincz2010s1.jpg 
http://img829.imageshack.us/img829/2451/lincz2010s2.jpg 
http://img542.imageshack.us/img542/4728/lincz2010s3.jpg 
http://img847.imageshack.us/img847/4018/lincz2010s4.jpg 
http://img851.imageshack.us/img851/9082/lincz2010s5.jpg